<svg width="408" height="382" viewBox="0 0 408 382" fill="none" xmlns="http://www.w3.org/2000/svg">
<path fill-rule="evenodd" clip-rule="evenodd" d="M72.2308 0.417247C64.2737 1.51752 52.4344 4.7673 32.4811 11.3284C18.7171 15.854 12.1548 19.4994 6.88396 25.5476C-0.969809 34.5593 -2.18009 49.938 3.64783 66.6727C8.77304 81.3914 15.898 91.7431 24.9087 97.5645C30.5325 101.198 33.8459 102.212 39.9229 102.161C45.9999 102.11 48.2426 102.904 49.7086 105.625C51.0412 108.098 50.7271 110.377 47.3119 122.99C42.3257 141.408 39.0979 159.636 34.7249 194.066C31.5015 219.44 30.8772 228.126 31.268 242.134C31.6772 256.777 33.4951 265.579 38.1278 275.342C42.4102 284.367 51.0123 294.933 58.9633 300.933L62.0599 303.27L62.394 308.128C63.1862 319.653 67.909 329.23 78.0232 339.82C98.8743 361.652 135.879 376.821 177.859 380.744C209.548 383.705 240.4 381.408 267.091 374.099C302.163 364.496 331.073 345.065 341.271 324.242C344.027 318.615 345.15 314.438 345.578 308.214L345.906 303.444L349.77 300.435C361.102 291.61 370.006 278.606 373.787 265.358C379.202 246.39 377.739 218.184 368.275 159.057C365.856 143.948 364.241 136.193 360.772 123.048C358.933 116.08 357.428 109.55 357.428 108.536C357.428 107.508 357.942 106.04 358.589 105.218C360.567 102.704 362.316 102.155 368.039 102.246C371.871 102.308 374.017 102.06 376.052 101.322C388.028 96.9794 398.068 84.6811 404.327 66.6888C410.479 48.9988 408.834 33.1095 399.91 24.0467C393.882 17.924 387.759 14.8409 371.883 9.93359C342.542 0.864666 334.498 -0.795834 325.194 0.294993C318.621 1.0663 313.628 2.57172 307.033 5.77141C301.222 8.59156 290.559 15.4401 284.974 19.939L281.179 22.997L274.967 20.9059C246.488 11.3196 195.714 9.02896 155.066 15.4973C146.461 16.867 138.862 18.7476 131.93 21.2243L126.615 23.1231L122.355 19.7245C112.206 11.6258 98.2711 3.78365 90.0432 1.54087C85.1598 0.209983 77.3105 -0.285151 72.2308 0.417247Z" fill="white"/>
<path fill-rule="evenodd" clip-rule="evenodd" d="M72.2308 0.417257C64.2737 1.51754 52.4344 4.76727 32.4811 11.3284C18.7171 15.854 12.1548 19.4994 6.88396 25.5476C-0.969809 34.5594 -2.18009 49.9378 3.64783 66.6727C8.77304 81.3915 15.898 91.743 24.9087 97.5645C30.5325 101.198 33.8459 102.212 39.9229 102.161C45.9999 102.11 48.2426 102.904 49.7086 105.625C51.0412 108.098 50.7271 110.377 47.3119 122.99C42.3257 141.408 39.0979 159.636 34.7249 194.066C31.5015 219.44 30.8772 228.125 31.268 242.134C31.6772 256.777 33.4951 265.579 38.1278 275.342C42.4102 284.367 51.0123 294.933 58.9633 300.933L62.0599 303.27L62.394 308.128C63.1862 319.653 67.909 329.23 78.0232 339.82C98.8743 361.652 135.879 376.821 177.859 380.744C209.548 383.705 240.4 381.408 267.091 374.099C302.163 364.496 331.073 345.066 341.271 324.242C344.027 318.615 345.15 314.438 345.578 308.214L345.906 303.444L349.77 300.435C361.102 291.61 370.006 278.606 373.787 265.358C379.202 246.39 377.739 218.185 368.275 159.057C365.856 143.948 364.241 136.193 360.772 123.048C358.933 116.08 357.428 109.55 357.428 108.536C357.428 107.508 357.942 106.04 358.589 105.218C360.567 102.704 362.316 102.155 368.039 102.246C371.871 102.308 374.017 102.06 376.052 101.322C388.028 96.9794 398.068 84.6812 404.327 66.6888C410.479 48.9987 408.834 33.1096 399.91 24.0467C393.882 17.924 387.759 14.841 371.883 9.9336C342.542 0.864594 334.498 -0.795835 325.194 0.295002C318.621 1.06631 313.628 2.57171 307.033 5.77142C301.222 8.59159 290.559 15.44 284.974 19.939L281.179 22.997L274.967 20.9059C246.488 11.3195 195.714 9.02893 155.066 15.4973C146.461 16.8671 138.862 18.7475 131.93 21.2243L126.615 23.1231L122.355 19.7245C112.206 11.6257 98.2711 3.78368 90.0432 1.54088C85.1598 0.209983 77.3105 -0.285147 72.2308 0.417257ZM87.3802 14.1697C88.8329 14.8165 90.0209 15.4717 90.0209 15.6256C90.0209 15.7796 88.7667 17.5611 87.234 19.5855C81.3021 27.4192 75.1095 39.0472 68.9386 53.9388C60.3865 74.5775 54.0566 83.8449 45.8676 87.7176C37.598 91.6274 30.1423 88.6156 23.5483 78.7008C16.1626 67.5963 11.3354 51.5743 12.753 42.8693C13.8188 36.3226 18.0267 30.9679 24.6357 27.7465C29.4657 25.3926 58.0516 16.4664 71.9529 12.9716C72.5644 12.8177 75.6916 12.7599 78.9021 12.8427C83.4063 12.9594 85.3427 13.2622 87.3802 14.1697ZM345.389 15.3722C361.381 19.8512 378.877 25.4659 382.836 27.3898C387.464 29.6381 391.303 33.2191 393.451 37.2896C394.856 39.9508 394.953 40.5915 394.938 47.0832C394.925 52.6952 394.672 54.8835 393.621 58.475C389.597 72.228 381.731 84.6306 374.919 87.9621C372.333 89.2263 371.343 89.4102 368.134 89.2246C363.183 88.9379 359.706 87.2185 355.465 82.9591C349.84 77.3099 345.823 70.2064 338.792 53.4737C332.405 38.2754 326.397 27.1819 320.119 18.9937C317.122 15.086 317.084 15.2083 321.797 13.6501C327.027 11.9208 335.194 12.517 345.389 15.3722ZM239.013 26.1617C252.824 27.7726 262.655 29.9454 272.091 33.473C299.195 43.6051 321.208 65.0695 336.623 96.397C348.082 119.684 352.128 135.096 358.48 179.641C365.891 231.616 366.135 249.695 359.65 266.502C355.95 276.091 347.128 286.891 337.87 293.162C336.439 294.132 335.17 294.925 335.05 294.925C334.93 294.925 335.259 293.237 335.782 291.174C339.617 276.028 338.288 254.808 332.338 236.206C325.213 213.927 313.425 193.932 294.392 171.838L289.126 165.725L292.412 165.11C296.873 164.275 300.435 162.874 303.926 160.582C317.224 151.851 319.074 131.256 307.606 119.608C304.245 116.195 301.212 114.278 296.508 112.594C291.907 110.946 283.921 110.924 279.458 112.546C271.343 115.494 265.47 121.625 263.187 129.529C262.48 131.978 262.297 134.327 262.45 138.976L262.653 145.164L258.347 142.318C248.195 135.609 235.333 130.417 223.169 128.12C217.452 127.04 214.668 126.86 203.711 126.86C192.753 126.86 189.97 127.04 184.253 128.12C172.264 130.384 159.533 135.43 149.786 141.782C147.165 143.489 144.958 144.886 144.883 144.886C144.807 144.886 144.988 143.12 145.287 140.962C146.845 129.698 141.058 118.696 131.007 113.807C116.589 106.794 98.7153 114.748 93.9042 130.317C91.8249 137.046 92.6894 146.193 95.9756 152.227C99.4541 158.615 106.904 163.66 114.719 164.921L118.866 165.589L115.008 169.965C91.8016 196.289 77.6012 222.541 71.8561 249.74C70.4613 256.345 70.3512 257.843 70.3329 270.474C70.3162 282.642 70.4452 284.647 71.5504 289.342C72.2303 292.231 72.7868 294.685 72.7868 294.795C72.7868 294.905 71.263 293.927 69.4011 292.622C61.4573 287.052 52.0419 275.465 48.4477 266.836C42.7866 253.244 42.3696 234.31 46.9422 198.511C50.7399 168.775 55.1229 142.549 58.1316 131.549C62.1172 116.982 64.8218 109.651 70.5202 97.973C84.6083 69.1016 103.869 48.5386 127.547 37.0917C142.151 30.031 155.288 27.2181 183.141 25.1875C190.346 24.6619 232.453 25.3959 239.013 26.1617ZM144.225 77.4516C137.49 78.853 131.138 81.7771 127.266 85.2569C122.951 89.1346 122.386 92.9172 125.705 95.7085C128.163 97.7768 130.885 97.5823 134.527 95.0778C138.954 92.0342 142.678 90.5272 147.57 89.7998C151.155 89.2668 152.28 88.8523 153.528 87.6053C156.151 84.983 155.411 79.5393 152.206 77.8828C150.773 77.142 146.754 76.9248 144.225 77.4516ZM255.752 77.8272C253.907 78.9042 252.954 80.8491 252.931 83.5893C252.897 87.552 255.952 89.7836 261.528 89.872C263.821 89.9081 268.921 92.0848 273.116 94.8166C277.33 97.5607 279.783 97.8024 282.262 95.7179C287.804 91.0567 281.498 82.8452 269.431 79.0092C263.886 77.2465 257.669 76.7092 255.752 77.8272ZM289.23 125.083C291.759 126.14 293.15 128.483 293.151 131.691C293.153 134.994 291.704 137.098 288.691 138.162C285.936 139.136 283.882 138.32 281.98 135.496C279.658 132.049 280.921 127.136 284.6 125.299C286.94 124.13 286.947 124.13 289.23 125.083ZM128.26 125.748C132.27 128.556 132.023 135.77 127.843 137.931C125.796 138.989 124.833 138.989 122.603 137.931C120.226 136.804 118.93 134.452 118.93 131.269C118.93 129.043 119.207 128.382 120.82 126.77C122.32 125.271 123.156 124.881 124.866 124.881C126.051 124.881 127.579 125.271 128.26 125.748ZM221.367 140.651C249.721 145.942 279.033 168.247 301.322 201.492C308.307 211.912 316.08 227.135 319.531 237.152C329.156 265.096 327.069 290.615 314.018 304.585C309.244 309.694 304.619 312.254 297.712 313.61C288.806 315.36 280.488 313.324 273.023 307.567C266.279 302.366 260.081 291.697 254.58 275.823C248.673 258.774 244.042 250.194 236.338 242.031C230.008 235.325 221.709 230.254 214.053 228.418L210.104 227.47V212.574C210.104 198.766 210.175 197.678 211.076 197.678C211.61 197.678 214.331 196.917 217.123 195.987C222.583 194.169 227.293 191.593 230.911 188.447C232.156 187.364 234.426 185.662 235.955 184.665C237.585 183.602 239.425 181.741 240.403 180.168C241.897 177.763 242.071 177.015 242.071 172.993C242.071 167.411 240.685 164.253 236.386 160.037C230.396 154.161 220.238 150.643 207.602 150.068C192.146 149.365 179.07 152.918 171.932 159.761C163.4 167.94 163.764 180.116 172.694 185.239C174.159 186.08 176.374 187.684 177.617 188.804C181.025 191.877 184.661 193.8 191.448 196.118L197.595 198.218L197.743 212.839L197.891 227.459L194.686 228.138C184.5 230.294 174.499 237.351 166.582 247.968C162.422 253.548 157.166 264.381 153.371 275.198C147.324 292.431 144.352 297.984 137.607 304.656C131.083 311.11 123.658 314.336 115.266 314.365C111.237 314.378 104.18 312.437 100.62 310.336C93.0141 305.844 86.9282 296.951 84.0701 286.15C82.8004 281.352 82.6375 279.646 82.603 270.752C82.5608 260.038 83.2207 254.886 85.9031 244.982C92.3681 221.11 110.876 191.205 131.028 172.073C151.059 153.056 168.797 143.571 191.202 139.898C196.025 139.108 215.733 139.599 221.367 140.651ZM136.588 204.66C134.547 205.767 133.384 208.185 133.384 211.32C133.384 213.518 133.667 214.186 135.274 215.793C140.772 221.289 149.237 213.874 145.222 207.08C143.491 204.15 139.56 203.048 136.588 204.66ZM117.315 227.803C115.041 229.022 113.643 231.418 113.699 234.001C113.792 238.304 116.852 240.949 120.965 240.282C128.203 239.108 128.057 228.203 120.791 227.34C119.606 227.2 118.056 227.406 117.315 227.803ZM140.289 239.991C137.42 241.383 136.436 246.029 138.347 249.161C141.48 254.297 149.498 251.723 149.504 245.579C149.507 243.362 148.217 240.708 146.757 239.927C145.42 239.212 141.822 239.247 140.289 239.991ZM210.603 241.876C218.693 243.783 226.992 250.049 232.618 258.5C236.448 264.255 238.234 268.181 242.738 280.755C246.906 292.388 250.693 300.476 254.227 305.291L256.738 308.71L253.538 311.761C242.914 321.89 226.6 326.77 203.433 326.748C180.763 326.726 163.992 321.641 153.824 311.706C150.672 308.627 150.648 308.579 151.68 307.454C153.51 305.459 157.896 298.302 159.638 294.467C160.565 292.426 162.946 286.256 164.928 280.755C170.398 265.576 174.587 257.813 180.584 251.737C189.258 242.948 200.074 239.396 210.603 241.876Z" fill="#00478A"/>
</svg>
