<svg width="512" height="512" viewBox="0 0 512 512" fill="none" xmlns="http://www.w3.org/2000/svg">
<rect width="512" height="512" fill="#1386DC"/>
<path fill-rule="evenodd" clip-rule="evenodd" d="M124.231 82.4172C116.274 83.5175 104.434 86.7673 84.4811 93.3284C70.7171 97.854 64.1548 101.499 58.884 107.548C51.0302 116.559 49.8199 131.938 55.6478 148.673C60.773 163.391 67.898 173.743 76.9087 179.565C82.5325 183.198 85.8459 184.212 91.9229 184.161C97.9999 184.11 100.243 184.904 101.709 187.625C103.041 190.098 102.727 192.377 99.3119 204.99C94.3257 223.408 91.0979 241.636 86.7249 276.066C83.5015 301.44 82.8772 310.126 83.268 324.134C83.6772 338.777 85.4951 347.579 90.1278 357.342C94.4102 366.367 103.012 376.933 110.963 382.933L114.06 385.27L114.394 390.128C115.186 401.653 119.909 411.23 130.023 421.82C150.874 443.652 187.879 458.821 229.859 462.744C261.548 465.705 292.4 463.408 319.091 456.099C354.163 446.496 383.073 427.065 393.271 406.242C396.027 400.615 397.15 396.438 397.578 390.214L397.906 385.444L401.77 382.435C413.102 373.61 422.006 360.606 425.787 347.358C431.202 328.39 429.739 300.184 420.275 241.057C417.856 225.948 416.241 218.193 412.772 205.048C410.933 198.08 409.428 191.55 409.428 190.536C409.428 189.508 409.942 188.04 410.589 187.218C412.567 184.704 414.316 184.155 420.039 184.246C423.871 184.308 426.017 184.06 428.052 183.322C440.028 178.979 450.068 166.681 456.327 148.689C462.479 130.999 460.834 115.109 451.91 106.047C445.882 99.924 439.759 96.8409 423.883 91.9336C394.542 82.8647 386.498 81.2042 377.194 82.295C370.621 83.0663 365.628 84.5717 359.033 87.7714C353.222 90.5916 342.559 97.4401 336.974 101.939L333.179 104.997L326.967 102.906C298.488 93.3196 247.714 91.029 207.066 97.4973C198.461 98.867 190.862 100.748 183.93 103.224L178.615 105.123L174.355 101.724C164.206 93.6258 150.271 85.7837 142.043 83.5409C137.16 82.21 129.31 81.7148 124.231 82.4172Z" fill="white"/>
<path fill-rule="evenodd" clip-rule="evenodd" d="M124.231 82.4173C116.274 83.5175 104.434 86.7673 84.4811 93.3284C70.7171 97.854 64.1548 101.499 58.884 107.548C51.0302 116.559 49.8199 131.938 55.6478 148.673C60.773 163.391 67.898 173.743 76.9087 179.565C82.5325 183.198 85.8459 184.212 91.9229 184.161C97.9999 184.11 100.243 184.904 101.709 187.625C103.041 190.098 102.727 192.377 99.3119 204.99C94.3257 223.408 91.0979 241.636 86.7249 276.066C83.5015 301.44 82.8772 310.125 83.268 324.134C83.6772 338.777 85.4951 347.579 90.1278 357.342C94.4102 366.367 103.012 376.933 110.963 382.933L114.06 385.27L114.394 390.128C115.186 401.653 119.909 411.23 130.023 421.82C150.874 443.652 187.879 458.821 229.859 462.744C261.548 465.705 292.4 463.408 319.091 456.099C354.163 446.496 383.073 427.066 393.271 406.242C396.027 400.615 397.15 396.438 397.578 390.214L397.906 385.444L401.77 382.435C413.102 373.61 422.006 360.606 425.787 347.358C431.202 328.39 429.739 300.185 420.275 241.057C417.856 225.948 416.241 218.193 412.772 205.048C410.933 198.08 409.428 191.55 409.428 190.536C409.428 189.508 409.942 188.04 410.589 187.218C412.567 184.704 414.316 184.155 420.039 184.246C423.871 184.308 426.017 184.06 428.052 183.322C440.028 178.979 450.068 166.681 456.327 148.689C462.479 130.999 460.834 115.11 451.91 106.047C445.882 99.924 439.759 96.841 423.883 91.9336C394.542 82.8646 386.498 81.2042 377.194 82.295C370.621 83.0663 365.628 84.5717 359.033 87.7714C353.222 90.5916 342.559 97.44 336.974 101.939L333.179 104.997L326.967 102.906C298.488 93.3195 247.714 91.0289 207.066 97.4973C198.461 98.8671 190.862 100.748 183.93 103.224L178.615 105.123L174.355 101.724C164.206 93.6257 150.271 85.7837 142.043 83.5409C137.16 82.21 129.31 81.7149 124.231 82.4173ZM139.38 96.1697C140.833 96.8165 142.021 97.4717 142.021 97.6256C142.021 97.7796 140.767 99.5611 139.234 101.586C133.302 109.419 127.11 121.047 120.939 135.939C112.387 156.578 106.057 165.845 97.8676 169.718C89.598 173.627 82.1423 170.616 75.5483 160.701C68.1626 149.596 63.3354 133.574 64.753 124.869C65.8188 118.323 70.0267 112.968 76.6357 109.747C81.4657 107.393 110.052 98.4664 123.953 94.9716C124.564 94.8177 127.692 94.7599 130.902 94.8427C135.406 94.9594 137.343 95.2622 139.38 96.1697ZM397.389 97.3722C413.381 101.851 430.877 107.466 434.836 109.39C439.464 111.638 443.303 115.219 445.451 119.29C446.856 121.951 446.953 122.592 446.938 129.083C446.925 134.695 446.672 136.884 445.621 140.475C441.597 154.228 433.731 166.631 426.919 169.962C424.333 171.226 423.343 171.41 420.134 171.225C415.183 170.938 411.706 169.219 407.465 164.959C401.84 159.31 397.823 152.206 390.792 135.474C384.405 120.275 378.397 109.182 372.119 100.994C369.122 97.086 369.084 97.2083 373.797 95.6501C379.027 93.9208 387.194 94.517 397.389 97.3722ZM291.013 108.162C304.824 109.773 314.655 111.945 324.091 115.473C351.195 125.605 373.208 147.069 388.623 178.397C400.082 201.684 404.128 217.096 410.48 261.641C417.891 313.616 418.135 331.695 411.65 348.502C407.95 358.091 399.128 368.891 389.87 375.162C388.439 376.132 387.17 376.925 387.05 376.925C386.93 376.925 387.259 375.237 387.782 373.174C391.617 358.028 390.288 336.808 384.338 318.206C377.213 295.927 365.425 275.932 346.392 253.838L341.126 247.725L344.412 247.11C348.873 246.275 352.435 244.874 355.926 242.582C369.224 233.851 371.074 213.256 359.606 201.608C356.245 198.195 353.212 196.278 348.508 194.594C343.907 192.946 335.921 192.924 331.458 194.546C323.343 197.494 317.47 203.625 315.187 211.529C314.48 213.978 314.297 216.327 314.45 220.976L314.653 227.164L310.347 224.318C300.195 217.609 287.333 212.417 275.169 210.12C269.452 209.04 266.668 208.86 255.711 208.86C244.753 208.86 241.97 209.04 236.253 210.12C224.264 212.384 211.533 217.43 201.786 223.782C199.165 225.489 196.958 226.886 196.883 226.886C196.807 226.886 196.988 225.12 197.287 222.962C198.845 211.698 193.058 200.696 183.007 195.807C168.589 188.794 150.715 196.748 145.904 212.317C143.825 219.046 144.689 228.193 147.976 234.227C151.454 240.615 158.904 245.66 166.719 246.921L170.866 247.589L167.008 251.965C143.802 278.289 129.601 304.541 123.856 331.74C122.461 338.345 122.351 339.843 122.333 352.474C122.316 364.642 122.445 366.647 123.55 371.342C124.23 374.231 124.787 376.685 124.787 376.795C124.787 376.905 123.263 375.927 121.401 374.622C113.457 369.052 104.042 357.465 100.448 348.836C94.7866 335.244 94.3696 316.31 98.9422 280.511C102.74 250.775 107.123 224.549 110.132 213.549C114.117 198.982 116.822 191.651 122.52 179.973C136.608 151.102 155.869 130.539 179.547 119.092C194.151 112.031 207.288 109.218 235.141 107.188C242.346 106.662 284.453 107.396 291.013 108.162ZM196.225 159.452C189.49 160.853 183.138 163.777 179.266 167.257C174.951 171.135 174.386 174.917 177.705 177.709C180.163 179.777 182.885 179.582 186.527 177.078C190.954 174.034 194.678 172.527 199.57 171.8C203.155 171.267 204.28 170.852 205.528 169.605C208.151 166.983 207.411 161.539 204.206 159.883C202.773 159.142 198.754 158.925 196.225 159.452ZM307.752 159.827C305.907 160.904 304.954 162.849 304.931 165.589C304.897 169.552 307.952 171.784 313.528 171.872C315.821 171.908 320.921 174.085 325.116 176.817C329.33 179.561 331.783 179.802 334.262 177.718C339.804 173.057 333.498 164.845 321.431 161.009C315.886 159.247 309.669 158.709 307.752 159.827ZM341.23 207.083C343.759 208.14 345.15 210.483 345.151 213.691C345.153 216.994 343.704 219.098 340.691 220.162C337.936 221.136 335.882 220.32 333.98 217.496C331.658 214.049 332.921 209.136 336.6 207.299C338.94 206.13 338.947 206.13 341.23 207.083ZM180.26 207.748C184.27 210.556 184.023 217.77 179.843 219.931C177.796 220.989 176.833 220.989 174.603 219.931C172.226 218.804 170.93 216.452 170.93 213.269C170.93 211.043 171.207 210.382 172.82 208.77C174.32 207.271 175.156 206.881 176.866 206.881C178.051 206.881 179.579 207.271 180.26 207.748ZM273.367 222.651C301.721 227.942 331.033 250.247 353.322 283.492C360.307 293.912 368.08 309.135 371.531 319.152C381.156 347.096 379.069 372.615 366.018 386.585C361.244 391.694 356.619 394.254 349.712 395.61C340.806 397.36 332.488 395.324 325.023 389.567C318.279 384.366 312.081 373.697 306.58 357.823C300.673 340.774 296.042 332.194 288.338 324.031C282.008 317.325 273.709 312.254 266.053 310.418L262.104 309.47V294.574C262.104 280.766 262.175 279.678 263.076 279.678C263.61 279.678 266.331 278.917 269.123 277.987C274.583 276.169 279.293 273.593 282.911 270.447C284.156 269.364 286.426 267.662 287.955 266.665C289.585 265.602 291.425 263.741 292.403 262.168C293.897 259.763 294.071 259.015 294.071 254.993C294.071 249.411 292.685 246.253 288.386 242.037C282.396 236.161 272.238 232.643 259.602 232.068C244.146 231.365 231.07 234.918 223.932 241.761C215.4 249.94 215.764 262.116 224.694 267.239C226.159 268.08 228.374 269.684 229.617 270.804C233.025 273.877 236.661 275.8 243.448 278.118L249.595 280.218L249.743 294.839L249.891 309.459L246.686 310.138C236.5 312.294 226.499 319.351 218.582 329.968C214.422 335.548 209.166 346.381 205.371 357.198C199.324 374.431 196.352 379.984 189.607 386.656C183.083 393.11 175.658 396.336 167.266 396.365C163.237 396.378 156.18 394.437 152.62 392.336C145.014 387.844 138.928 378.951 136.07 368.15C134.8 363.352 134.637 361.646 134.603 352.752C134.561 342.038 135.221 336.886 137.903 326.982C144.368 303.11 162.876 273.205 183.028 254.073C203.059 235.056 220.797 225.571 243.202 221.898C248.025 221.108 267.733 221.599 273.367 222.651ZM188.588 286.66C186.547 287.767 185.384 290.185 185.384 293.32C185.384 295.518 185.667 296.186 187.274 297.793C192.772 303.289 201.237 295.874 197.222 289.08C195.491 286.15 191.56 285.048 188.588 286.66ZM169.315 309.803C167.041 311.022 165.643 313.418 165.699 316.001C165.792 320.304 168.852 322.949 172.965 322.282C180.203 321.108 180.057 310.203 172.791 309.34C171.606 309.2 170.056 309.406 169.315 309.803ZM192.289 321.991C189.42 323.383 188.436 328.029 190.347 331.161C193.48 336.297 201.498 333.723 201.504 327.579C201.507 325.362 200.217 322.708 198.757 321.927C197.42 321.212 193.822 321.247 192.289 321.991ZM262.603 323.876C270.693 325.783 278.992 332.049 284.618 340.5C288.448 346.255 290.234 350.181 294.738 362.755C298.906 374.388 302.693 382.476 306.227 387.291L308.738 390.71L305.538 393.761C294.914 403.89 278.6 408.77 255.433 408.748C232.763 408.726 215.992 403.641 205.824 393.706C202.672 390.627 202.648 390.579 203.68 389.454C205.51 387.459 209.896 380.302 211.638 376.467C212.565 374.426 214.946 368.256 216.928 362.755C222.398 347.576 226.587 339.813 232.584 333.737C241.258 324.948 252.074 321.396 262.603 323.876Z" fill="#00478A"/>
</svg>
